<?xml version="1.0" encoding="utf-8"?>
<!-- Generator: Adobe Illustrator 17.0.0, SVG Export Plug-In . SVG Version: 6.00 Build 0)  -->
<!DOCTYPE svg PUBLIC "-//W3C//DTD SVG 1.1//EN" "http://www.w3.org/Graphics/SVG/1.1/DTD/svg11.dtd" [
	<!ENTITY ns_flows "http://ns.adobe.com/Flows/1.0/">
	<!ENTITY ns_extend "http://ns.adobe.com/Extensibility/1.0/">
	<!ENTITY ns_ai "http://ns.adobe.com/AdobeIllustrator/10.0/">
	<!ENTITY ns_graphs "http://ns.adobe.com/Graphs/1.0/">
]>
<svg version="1.1" id="Layer_1" xmlns:x="&ns_extend;" xmlns:i="&ns_ai;" xmlns:graph="&ns_graphs;"
	 xmlns="http://www.w3.org/2000/svg" xmlns:xlink="http://www.w3.org/1999/xlink" xmlns:a="http://ns.adobe.com/AdobeSVGViewerExtensions/3.0/"
	 x="0px" y="0px" width="66.4px" height="65.8px" viewBox="0 0 66.4 65.8" enable-background="new 0 0 66.4 65.8"
	 xml:space="preserve">
<g>
	<rect x="229.3" y="127.9" fill="none" width="63.4" height="1.3"/>
	<path fill="none" d="M243.4,111.4H234c-0.4,0-4.1,0.1-4.6,4H248C247.5,111.6,243.9,111.4,243.4,111.4z"/>
	<path fill="none" d="M286.1,117.6h-56.8v8h63.4v-1.4C292.7,120.6,289.8,117.6,286.1,117.6z"/>
	<path fill="#EE1E3F" d="M295,130.3v-6c0-4.9-4-8.9-8.9-8.9h-35.8c-0.1-1.7-0.8-3.1-1.9-4.2c-2-2-4.9-2-5-2H234
		c-0.1,0-2.7,0.1-4.7,1.7v-6.8c0-0.6-0.5-1.2-1.2-1.2c-0.6,0-1.2,0.5-1.2,1.2v12.4v13.8v1.1h2.3h63.4h2.3V130.3z M234,111.4h9.4
		c0.4,0,4.1,0.1,4.6,4h-18.6C229.9,111.6,233.6,111.4,234,111.4z M292.7,129.2h-63.4v-1.3h63.4V129.2z M229.3,125.6v-8h56.8
		c3.7,0,6.6,3,6.6,6.6v1.4H229.3z"/>
	<path fill="#EE1E3F" d="M285,102v2.6c0,0.7,0.6,1.4,1.4,1.4h3.4c0.7,0,1.4-0.6,1.4-1.4V102h2.6c0.7,0,1.4-0.6,1.4-1.4v-3.4
		c0-0.7-0.6-1.4-1.4-1.4H291v-2.6c0-0.7-0.6-1.4-1.4-1.4h-3.4c-0.7,0-1.4,0.6-1.4,1.4v2.6h-2.6c-0.7,0-1.4,0.6-1.4,1.4v3.4
		c0,0.7,0.6,1.4,1.4,1.4H285z M283,97.9h4v-4h2v4h4v2h-4v4h-2v-4h-4V97.9z"/>
</g>
<g>
	<path fill="#EE1E3F" d="M27.2,15.6c0.5,0,1-0.4,1-1c0-0.5-0.4-1-1-1s-1,0.4-1,1C26.2,15.2,26.6,15.6,27.2,15.6z"/>
	<path fill="#EE1E3F" d="M33,25.4c-0.4,0-0.9-0.3-1.3-0.7c-0.3-0.4-1-0.5-1.4-0.1c-0.4,0.3-0.5,1-0.1,1.4c0.5,0.6,1.1,1.1,1.8,1.3
		v1.1c0,0.5,0.4,1,1,1s1-0.4,1-1v-1.1c1.1-0.4,2-1.5,2-2.8c0-1.6-1.3-2.9-2.9-2.9c-0.5,0-1-0.4-1-1s0.4-1,1-1c0.3,0,0.7,0.2,1.1,0.5
		c0.4,0.4,1,0.4,1.4,0c0.4-0.4,0.4-1,0-1.4c-0.5-0.5-1-0.8-1.4-0.9v-1.1c0-0.5-0.4-1-1-1s-1,0.4-1,1v1.1c-1.1,0.4-2,1.5-2,2.8
		c0,1.6,1.3,2.9,2.9,2.9c0.5,0,1,0.4,1,1S33.6,25.4,33,25.4z"/>
	<path fill="#EE1E3F" d="M54.1,22.1c-2.2,0-3.9,1.8-3.9,3.9v7c-1.3-0.3-2.7,0-3.7,1l-6.5,6.5c-0.9,0.9-1.4,2.1-1.4,3.5v5.7h-1
		c-0.5,0-1,0.4-1,1v6.2c0,0.5,0.4,1,1,1h13.7c0.5,0,1-0.4,1-1v-6.2c0-0.5-0.4-1-1-1h-1v-0.5c0-0.3,0.1-0.5,0.3-0.7l6.1-6.1
		c0.9-0.9,1.4-2.1,1.4-3.5V26C58,23.8,56.3,22.1,54.1,22.1z M50.2,55.9H38.5v-4.2h11.7V55.9z M56.1,39c0,0.8-0.3,1.5-0.9,2.1
		l-6.1,6.1c-0.5,0.5-0.9,1.3-0.9,2.1v0.5h-7.8V44c0-0.8,0.3-1.5,0.9-2.1l6.5-6.5c0.7-0.7,1.9-0.8,2.7-0.1c0,0,0,0,0,0
		c0,0,0,0,0.1,0.1c0.4,0.4,0.6,0.9,0.6,1.4c0,0.5-0.2,1-0.6,1.4L45.8,43c-0.4,0.4-0.4,1,0,1.4c0.4,0.4,1,0.4,1.4,0l4.9-4.9
		c0.7-0.7,1.1-1.7,1.1-2.8c0-1-0.3-1.9-1-2.6V26c0-1.1,0.9-2,2-2s2,0.9,2,2V39z"/>
	<path fill="#EE1E3F" d="M28.5,49.7h-1V44c0-1.3-0.5-2.5-1.4-3.5L19.6,34c-1-1-2.4-1.4-3.7-1v-7c0-2.2-1.8-3.9-3.9-3.9S8,23.8,8,26
		v13c0,1.3,0.5,2.5,1.4,3.5l6.1,6.1c0.2,0.2,0.3,0.4,0.3,0.7v0.5h-1c-0.5,0-1,0.4-1,1v6.2c0,0.5,0.4,1,1,1h13.7c0.5,0,1-0.4,1-1
		v-6.2C29.5,50.2,29.1,49.7,28.5,49.7z M16.9,47.2l-6.1-6.1C10.3,40.5,10,39.8,10,39V26c0-1.1,0.9-2,2-2s2,0.9,2,2v8.2
		c-0.6,0.7-1,1.6-1,2.6c0,1,0.4,2,1.1,2.8l4.9,4.9c0.4,0.4,1,0.4,1.4,0c0.4-0.4,0.4-1,0-1.4l-4.9-4.9c-0.4-0.4-0.6-0.9-0.6-1.4
		c0-0.5,0.2-1,0.6-1.4c0,0,0,0,0.1-0.1l0,0c0.8-0.7,1.9-0.7,2.7,0.1l6.6,6.6c0.6,0.6,0.9,1.3,0.9,2.1v5.7h-7.8v-0.5
		C17.8,48.5,17.5,47.7,16.9,47.2z M27.6,55.9H15.8v-4.2h11.7V55.9z"/>
	<path fill="#EE1E3F" d="M47.7,22.5c0-8.1-6.6-14.6-14.6-14.6s-14.6,6.6-14.6,14.6S25,37.1,33,37.1S47.7,30.5,47.7,22.5z M33,35.2
		c-7,0-12.7-5.7-12.7-12.7S26,9.8,33,9.8s12.7,5.7,12.7,12.7S40,35.2,33,35.2z"/>
	<path fill="#EE1E3F" d="M39.8,14.1c-2.5-2.1-5.9-2.8-9.1-2.1c-0.5,0.1-0.9,0.6-0.7,1.2c0.1,0.5,0.6,0.9,1.2,0.7
		c2.7-0.6,5.4,0.1,7.5,1.7c2.1,1.7,3.3,4.2,3.3,6.8c0,4.8-3.9,8.8-8.8,8.8s-8.8-3.9-8.8-8.8c0-1.4,0.4-2.9,1-4.1
		c0.3-0.5,0.1-1.1-0.4-1.3c-0.5-0.3-1.1-0.1-1.3,0.4c-0.8,1.6-1.3,3.3-1.3,5.1c0,5.9,4.8,10.7,10.7,10.7s10.7-4.8,10.7-10.7
		C43.8,19.2,42.3,16.2,39.8,14.1z"/>
</g>
</svg>
