<?xml version="1.0" encoding="utf-8"?>
<!-- Generator: Adobe Illustrator 17.0.0, SVG Export Plug-In . SVG Version: 6.00 Build 0)  -->
<!DOCTYPE svg PUBLIC "-//W3C//DTD SVG 1.1//EN" "http://www.w3.org/Graphics/SVG/1.1/DTD/svg11.dtd" [
	<!ENTITY ns_flows "http://ns.adobe.com/Flows/1.0/">
	<!ENTITY ns_extend "http://ns.adobe.com/Extensibility/1.0/">
	<!ENTITY ns_ai "http://ns.adobe.com/AdobeIllustrator/10.0/">
	<!ENTITY ns_graphs "http://ns.adobe.com/Graphs/1.0/">
]>
<svg version="1.1" id="Layer_1" xmlns:x="&ns_extend;" xmlns:i="&ns_ai;" xmlns:graph="&ns_graphs;"
	 xmlns="http://www.w3.org/2000/svg" xmlns:xlink="http://www.w3.org/1999/xlink" xmlns:a="http://ns.adobe.com/AdobeSVGViewerExtensions/3.0/"
	 x="0px" y="0px" width="66.4px" height="65.8px" viewBox="0 0 66.4 65.8" enable-background="new 0 0 66.4 65.8"
	 xml:space="preserve">
<g>
	<rect x="229.3" y="127.9" fill="none" width="63.4" height="1.3"/>
	<path fill="none" d="M243.4,111.4H234c-0.4,0-4.1,0.1-4.6,4H248C247.5,111.6,243.9,111.4,243.4,111.4z"/>
	<path fill="none" d="M286.1,117.6h-56.8v8h63.4v-1.4C292.7,120.6,289.8,117.6,286.1,117.6z"/>
	<path fill="#EE1E3F" d="M295,130.3v-6c0-4.9-4-8.9-8.9-8.9h-35.8c-0.1-1.7-0.8-3.1-1.9-4.2c-2-2-4.9-2-5-2H234
		c-0.1,0-2.7,0.1-4.7,1.7v-6.8c0-0.6-0.5-1.2-1.2-1.2c-0.6,0-1.2,0.5-1.2,1.2v12.4v13.8v1.1h2.3h63.4h2.3V130.3z M234,111.4h9.4
		c0.4,0,4.1,0.1,4.6,4h-18.6C229.9,111.6,233.6,111.4,234,111.4z M292.7,129.2h-63.4v-1.3h63.4V129.2z M229.3,125.6v-8h56.8
		c3.7,0,6.6,3,6.6,6.6v1.4H229.3z"/>
	<path fill="#EE1E3F" d="M285,102v2.6c0,0.7,0.6,1.4,1.4,1.4h3.4c0.7,0,1.4-0.6,1.4-1.4V102h2.6c0.7,0,1.4-0.6,1.4-1.4v-3.4
		c0-0.7-0.6-1.4-1.4-1.4H291v-2.6c0-0.7-0.6-1.4-1.4-1.4h-3.4c-0.7,0-1.4,0.6-1.4,1.4v2.6h-2.6c-0.7,0-1.4,0.6-1.4,1.4v3.4
		c0,0.7,0.6,1.4,1.4,1.4H285z M283,97.9h4v-4h2v4h4v2h-4v4h-2v-4h-4V97.9z"/>
</g>
<g>
	<path fill="#EE1E3F" d="M32,7.5c0.6,0,1.2,0,1.9,0c0.5,0.2,0.9,0.4,1,1c0,0.4,0.1,0.9,0.1,1.3c0,0.6-0.2,1.3-0.3,2
		c0.8-0.4,1.5-0.8,2.2-1.2c1-0.4,2.1-0.9,3.1-1.3c1.6-0.6,3.2-1.1,4.9-1.4c0.6-0.1,1.2-0.1,1.8-0.3c1,0,2,0,2.9,0
		c0,0,0.1,0.1,0.1,0.1c2,0.2,3.8,0.8,5.3,2.1c0.3,0.3,0.7,0.7,1,1c0.9,1.1,1.5,2.4,1.9,3.8c0.1,0.5,0.1,1,0.3,1.5c0,1,0,2,0,3
		c-0.1,0-0.1,0.2-0.1,0.2c-0.1,1-0.3,2-0.6,3c-0.3,1.2-0.7,2.4-1.1,3.6c-0.4,0.9-0.8,1.7-1.1,2.6c-0.1,0.2-0.1,0.3,0,0.5
		c0.1,0.6,0.1,1.2,0.2,1.8c0.2,1.7,0.1,3.4-0.1,5.1c-0.2,0.8-0.3,1.6-0.5,2.4c-0.1,0.1-0.1,0.1-0.1,0.2c-0.5,1.6-1,3.1-1.8,4.5
		c-0.2,0.4-0.5,0.7-1.1,0.7c-0.5,0-0.8-0.4-0.9-1c0.1-0.2,0.1-0.4,0.2-0.6c0.6-1,1-2.1,1.4-3.2c0.9-2.6,1.2-5.2,1-7.9
		c0-0.6-0.1-1.1-0.2-1.7c-0.3-1.9-0.8-3.7-1.7-5.4c-0.1-0.5-0.4-0.9-0.7-1.3c-0.2-0.5-0.5-0.9-0.8-1.3c-0.3-0.4-0.4-0.8-1.1-0.6
		c-0.3,0.1-0.8,0-1.2,0c-0.7,0-1.5-0.1-2.2,0.1c-1.5,0.3-2.6,1.4-2.8,2.8c0,0.1-0.1,0.3-0.1,0.4c0.1,1.5-1.1,2.9-2.9,2.9
		c-0.8,0-1.6,0.7-1.7,1.5c-0.1,0.4-0.1,0.8,0,1.2c0.1,1,0.9,1.8,1.9,1.8c0.7,0,1.4,0,2.1,0c0.6,0,1.2,0,1.9,0c0.5,0,1.1,0,1.6,0
		c0.7,0,1.4,0,2,0c0.6,0,1,0.4,1,1c0,0.6-0.4,1-1,1c-0.1,0-0.3,0-0.4,0c-1.8,0-3.6,0-5.5,0c-0.6,0-1.2,0-1.9,0
		c-1.8-0.2-3.1-1.2-3.6-2.9c-0.1-0.6-0.1-1.2-0.1-1.9c0.3-2.2,1.5-3.4,3.7-3.7c0.7,0,0.8-0.2,0.9-0.9c0.3-3.1,2.2-5,5.3-5.3
		c0.7,0,1.3,0,2.1,0c-0.4-0.4-0.7-0.8-1.1-1.1c-1.2-1.2-2.5-2.2-4-2.9c-0.4-0.3-0.8-0.5-1.3-0.7c-1.3-0.7-2.8-1.1-4.2-1.5
		c-0.1,0-0.3,0-0.4,0c-0.7,0.4-1.4,0.7-2,1.1c-1.6,0.9-3.2,1.8-4.5,3.2c-0.6,0.6-0.6,0.6-0.2,1.3c0,0,0,0,0.1,0.1
		c0.7,1.6,1.5,3.3,2.3,4.9c0.1,0.4,0.3,0.7,0.5,1.1c0.4,0.8,0.8,1.6,1.1,2.5c0.3,0.6,0.2,0.9-0.2,1.4c-0.6,0.6-1.1,1.2-1.7,1.7
		c-0.6,0.6-1.2,0.6-1.7-0.1c-0.4-0.5-0.8-1.1-1.3-1.6c-0.2-0.4-0.5-0.7-0.8-1c-1-1.3-2-2.7-3-3.9c-0.2-0.2-0.4-0.5-0.6-0.8
		c-1.3,1.3-2.6,2.7-4,3.9c-0.6,0.6-0.9,1.2-0.7,2c0.1,0.8,0.1,1.6,0.2,2.4c0,0.3,0,0.6-0.2,0.9c-0.8,0.9-1.7,1.7-2.6,2.5
		c-0.5,0.5-1.2,0.2-1.5-0.4c-0.1-0.3-0.2-0.5-0.3-0.8c-0.1-0.4-0.1-0.7-0.3-1.1c-0.6,1-1.2,1.8-1.6,2.7c-0.4,0.7-0.7,1.3-1.1,2
		c-0.1,0.1-0.1,0.3,0,0.4c0.4,1.5,0.8,2.9,1.5,4.2c0.1,0.4,0.4,0.8,0.6,1.2c0.8,1.5,1.8,2.9,3,4.1c0.3,0.4,0.6,0.7,1,1
		c0.3,0.2,0.5,0.5,0.8,0.7c1,0.8,2.1,1.6,3.3,2.2c0.4,0.2,0.8,0.4,1.2,0.6c0.5,0.2,1,0.5,1.5,0.6c1.3,0.5,2.6,0.9,3.9,1
		c0.5,0.1,1.1,0.2,1.7,0.2c1.1,0.1,2.2,0.1,3.3,0c0.3,0,0.3-0.1,0.3-0.3c0-0.7,0-1.4,0-2.1c0-0.4-0.1-0.7-0.3-1
		c-0.2-0.5-0.6-0.8-1.1-0.9c-0.3-0.2-0.7-0.1-1-0.2c-1.9-0.1-3.8,0.2-5.6-0.2c-0.3-0.2-0.7-0.4-1-0.6c-0.9-0.8-1.4-1.8-1.5-3.1
		c0-0.6-0.4-0.9-1-0.9c-0.2,0-0.5,0-0.7,0c-0.6,0-1.2-0.1-1.7-0.1c-0.3-0.1-0.6-0.2-0.8-0.3c-1.3-0.6-2-1.6-2.5-3
		c-0.1-0.6-0.1-1.2-0.1-1.8c0.1-0.4,0.2-0.9,0.4-1.3c0.7-1.4,1.8-2.3,3.4-2.6c0.2,0,0.4,0,0.4-0.3c0.3-1.4,1.1-2.2,2.4-2.6
		c0.6-0.1,1.3-0.1,2-0.1c1.2,0,2.5,0,3.7,0c0.9,0,1.8,0.1,2.6,0.4c0.4,0.3,0.8,0.5,1.2,0.8c0.9,0.9,1.4,2,1.4,3.3c0,0.6,0,1.3,0,1.9
		c0,0.6,0,1.2,0,1.9c-0.1,0.7,0,0.8,0.7,0.8c0.5,0,1.1,0,1.6,0.1c1,0.2,1.7,0.8,2.3,1.5c0.2,0.4,0.4,0.7,0.5,1.1
		c0.3,1.1,0.1,2.3,0.2,3.4c0,0.7-0.4,1.1-0.9,1.1c-0.6,0-1-0.4-1-1.1c0-0.5,0-0.9,0-1.4c0-0.6,0.1-1.1-0.2-1.7
		c-0.1-0.4-0.4-0.7-0.7-0.9c-0.5-0.4-1.1-0.4-1.7-0.3c-1,0.1-1.8-0.3-2.4-1.1c-0.2-0.4-0.3-0.9-0.4-1.3c0-1.4,0-2.8,0-4.2
		c0-0.7-0.3-1.4-0.9-1.8c-0.4-0.4-0.9-0.6-1.5-0.6c-2,0-3.9,0-5.9,0c-0.7,0-1.2,0.6-1.3,1.3c-0.1,1.1-0.6,1.6-1.7,1.6
		c-1.4,0.1-2.5,1.2-2.5,2.6c0,1.4,1.1,2.5,2.5,2.6c0.4,0,0.7,0,1.1,0c0.5,0,1,0.1,1.6,0.2c1.1,0.6,1.7,1.5,1.7,2.8
		c0,0.6,0.3,1.1,0.8,1.4c0.5,0.5,1.2,0.4,1.8,0.4c1,0,2,0,3,0c1.1,0,2.2,0.1,3.2,0.7c0.3,0.3,0.6,0.5,0.8,0.8c1.1,1.4,0.9,3,0.9,4.7
		c0.8-0.2,1.6-0.3,2.4-0.7c1.1-0.3,2.2-0.8,3.2-1.4c0.3-0.1,0.5-0.2,0.7-0.4c0.5-0.2,0.9-0.5,1.3-0.8c0.6-0.4,1.1-0.3,1.5,0.2
		c0.3,0.5,0.2,1-0.4,1.4c-0.5,0.3-1.1,0.7-1.6,1c-1.7,1-3.5,1.7-5.4,2.2c-0.8,0.2-1.6,0.3-2.4,0.5c-1.7,0.2-3.3,0.3-5,0.1
		c-0.6-0.1-1.2-0.1-1.8-0.2c-0.2-0.1-0.3-0.1-0.5,0c-0.9,0.4-1.7,0.8-2.6,1.1c-0.2,0.1-0.4,0.1-0.6,0.2c-2.1,0.8-4.3,1.4-6.6,1.5
		c-2.9,0.2-5.7-0.3-8.1-2.1c-0.3-0.3-0.7-0.6-1-1c-0.3-0.4-0.6-0.8-0.8-1.2c-1.4-2.4-1.5-5.1-1.2-7.8c0.2-2,0.8-4,1.5-5.9
		c0.4-1,0.8-1.9,1.3-2.9c0-0.1,0-0.2,0-0.2c-0.1-0.7-0.1-1.4-0.2-2c-0.2-1.6-0.1-3.2,0.1-4.8c0.1-0.7,0.3-1.5,0.4-2.2
		c0.2-0.6,0.2-0.6-0.4-0.8c-0.7-0.2-1.3-0.4-2-0.5c-0.9-0.3-1.1-1.1-0.5-1.7c0.7-0.8,1.5-1.5,2.2-2.2c0.3-0.3,0.6-0.4,1-0.4
		c1.1,0.1,2.2,0.2,3.3,0.3c0.2,0,0.3,0,0.5-0.1c1.5-1.5,3-3,4.6-4.6c-1.1-0.8-2.2-1.7-3.3-2.5c-0.3-0.3-0.7-0.5-1-0.8
		c-1-0.7-1.9-1.5-2.9-2.2c-0.3-0.3-0.6-0.5-0.7-0.9c0-0.7,0.6-1,1-1.5c0.5-0.5,0.9-0.9,1.4-1.4c0.4-0.3,0.8-0.2,1.3,0
		c1.4,0.7,2.7,1.3,4.1,1.9c0.4,0.2,0.8,0.4,1.3,0.6c1.2,0.6,2.4,1.2,3.6,1.8c0.2,0.1,0.3,0,0.4-0.1c0.7-0.7,1.4-1.4,2.1-2.1
		c0.9-0.9,1.9-1.6,3.1-2C30.8,7.8,31.4,7.7,32,7.5z M31.1,26.9c0.2,0.3,0.5,0.6,0.7,1c0.7-0.7,0.7-0.7,0.3-1.5
		c-0.1-0.1-0.2-0.3-0.2-0.4c-0.2-0.4-0.4-0.9-0.6-1.3c-0.7-1.6-1.5-3.1-2.2-4.7c-0.1-0.4-0.3-0.8-0.6-1.2c-0.1-0.2-0.2-0.5-0.3-0.7
		c-0.4-0.9-0.4-1.1,0.3-1.8c0.9-0.9,1.8-1.8,2.7-2.7c1-1.1,1.6-2.3,1.7-3.8c0-0.3,0-0.4-0.3-0.4c-1.2,0.1-2.4,0.5-3.3,1.3
		c-0.2,0.1-0.4,0.3-0.5,0.4c-0.9,0.8-1.7,1.7-2.5,2.5c-0.6,0.6-1.2,0.9-2,0.4c-1.6-0.8-3.2-1.6-4.8-2.3c-0.3-0.2-0.7-0.4-1.1-0.5
		c-0.8-0.4-1.7-0.8-2.5-1.2c-0.5-0.3-0.8-0.2-1.1,0.2c-0.1,0.2-0.1,0.2,0,0.4c0.8,0.6,1.6,1.2,2.4,1.8c0.3,0.3,0.6,0.5,0.9,0.7
		c1.3,1,2.7,2.1,4,3.1c0.6,0.7,0.5,1.1-0.1,1.7c-1.6,1.6-3.1,3.1-4.7,4.7c-1.4,1.4-1,1.2-2.8,1.1c0,0,0,0,0,0
		c-0.5-0.1-1.1,0-1.6-0.2c-0.8-0.2-1.4,0.1-1.8,0.8c0.8,0.2,1.6,0.4,2.3,0.6c0.5,0.2,1,0.3,1.5,0.4c0.2,0.1,0.4,0.2,0.6,0.2
		c0.7,0.1,1.1,0.5,1.3,1.3c0.2,0.9,0.5,1.7,0.7,2.6c0.1,0.6,0.3,1.2,0.5,1.9c0.3-0.3,0.5-0.5,0.7-0.8c0.1-0.1,0.2-0.1,0.2-0.3
		c-0.1-0.6-0.1-1.2-0.2-1.8c0-0.5,0-1-0.1-1.5c-0.1-0.5,0.1-1,0.5-1.3c1.8-1.8,3.5-3.5,5.3-5.3c0.1-0.1,0.3-0.2,0.4-0.4
		c0.4-0.3,0.9-0.3,1.2,0.1c0.2,0.1,0.3,0.3,0.4,0.5c0.3,0.4,0.6,0.8,0.9,1.2c0.9,1.3,1.9,2.6,2.9,3.8C30.4,26.1,30.7,26.5,31.1,26.9
		z M20,55.4c1.3-0.1,4.9-1.1,5.9-1.7c-1.1-0.3-2.1-0.8-3.2-1.3c-0.4-0.2-0.8-0.4-1.2-0.7C20.3,50.9,19,50,17.8,49
		c-0.4-0.4-0.7-0.7-1.1-1.1c-1.1-1.2-2-2.5-2.9-3.8c-0.2-0.4-0.5-0.8-0.7-1.3c-0.5-1-0.9-2.1-1.3-3.2c-0.1,0.3-0.2,0.6-0.3,0.8
		c-0.6,1.7-1.2,3.4-1.3,5.3C10,46.3,10,47,10,47.7c0,0.9,0.1,1.8,0.3,2.6c0.3,1,0.7,2,1.4,2.8c0.3,0.4,0.6,0.7,1,0.9
		c1.6,1.2,3.4,1.6,5.4,1.5C18.7,55.6,19.4,55.6,20,55.4z M55.9,19.6c0.1-0.6,0.2-1.3,0.2-2c0-1.9-0.3-3.8-1.5-5.4
		c-0.2-0.4-0.6-0.7-0.9-1c-0.1-0.1-0.2-0.2-0.3-0.3c-1.5-1.1-3.3-1.5-5.1-1.5c-0.7,0-1.3,0-2,0.1c-2.1,0.2-4.1,0.9-6.2,1.7
		c1.2,0.4,2.3,0.9,3.3,1.4c0.4,0.2,0.8,0.4,1.2,0.6c1.4,0.9,2.6,1.8,3.8,2.9c0.4,0.4,0.7,0.7,1.1,1.1c1.1,1.2,2,2.5,2.8,3.8
		c0.2,0.4,0.4,0.8,0.7,1.2c0.5,1,1,2.1,1.3,3.2c0.3-0.8,0.5-1.5,0.8-2.1C55.4,22.1,55.8,20.9,55.9,19.6z M12.7,33.3
		c0.8-1.3,1.6-2.5,2.5-3.7c0.1-0.2-0.2-1.8-0.5-1.9c0,0-0.1,0-0.1,0c-0.3-0.1-0.7-0.2-1-0.3c-0.2,0-0.3,0-0.3,0.2
		C12.8,29.3,12.6,31.3,12.7,33.3z"/>
	<path fill="#EE1E3F" d="M50,46.7c0,0.5-0.4,1-1,1c-0.5,0-1-0.4-1-0.9c0-0.5,0.5-1,1-1C49.6,45.7,50,46.2,50,46.7z"/>
</g>
</svg>
