<?xml version="1.0" encoding="utf-8"?>
<!-- Generator: Adobe Illustrator 17.0.0, SVG Export Plug-In . SVG Version: 6.00 Build 0)  -->
<!DOCTYPE svg PUBLIC "-//W3C//DTD SVG 1.1//EN" "http://www.w3.org/Graphics/SVG/1.1/DTD/svg11.dtd" [
	<!ENTITY ns_flows "http://ns.adobe.com/Flows/1.0/">
	<!ENTITY ns_extend "http://ns.adobe.com/Extensibility/1.0/">
	<!ENTITY ns_ai "http://ns.adobe.com/AdobeIllustrator/10.0/">
	<!ENTITY ns_graphs "http://ns.adobe.com/Graphs/1.0/">
]>
<svg version="1.1" id="Layer_1" xmlns:x="&ns_extend;" xmlns:i="&ns_ai;" xmlns:graph="&ns_graphs;"
	 xmlns="http://www.w3.org/2000/svg" xmlns:xlink="http://www.w3.org/1999/xlink" xmlns:a="http://ns.adobe.com/AdobeSVGViewerExtensions/3.0/"
	 x="0px" y="0px" width="66.4px" height="65.8px" viewBox="0 0 66.4 65.8" enable-background="new 0 0 66.4 65.8"
	 xml:space="preserve">
<g>
	<rect x="229.3" y="127.9" fill="none" width="63.4" height="1.3"/>
	<path fill="none" d="M243.4,111.4H234c-0.4,0-4.1,0.1-4.6,4H248C247.5,111.6,243.9,111.4,243.4,111.4z"/>
	<path fill="none" d="M286.1,117.6h-56.8v8h63.4v-1.4C292.7,120.6,289.8,117.6,286.1,117.6z"/>
	<path fill="#EE1E3F" d="M295,130.3v-6c0-4.9-4-8.9-8.9-8.9h-35.8c-0.1-1.7-0.8-3.1-1.9-4.2c-2-2-4.9-2-5-2H234
		c-0.1,0-2.7,0.1-4.7,1.7v-6.8c0-0.6-0.5-1.2-1.2-1.2c-0.6,0-1.2,0.5-1.2,1.2v12.4v13.8v1.1h2.3h63.4h2.3V130.3z M234,111.4h9.4
		c0.4,0,4.1,0.1,4.6,4h-18.6C229.9,111.6,233.6,111.4,234,111.4z M292.7,129.2h-63.4v-1.3h63.4V129.2z M229.3,125.6v-8h56.8
		c3.7,0,6.6,3,6.6,6.6v1.4H229.3z"/>
	<path fill="#EE1E3F" d="M285,102v2.6c0,0.7,0.6,1.4,1.4,1.4h3.4c0.7,0,1.4-0.6,1.4-1.4V102h2.6c0.7,0,1.4-0.6,1.4-1.4v-3.4
		c0-0.7-0.6-1.4-1.4-1.4H291v-2.6c0-0.7-0.6-1.4-1.4-1.4h-3.4c-0.7,0-1.4,0.6-1.4,1.4v2.6h-2.6c-0.7,0-1.4,0.6-1.4,1.4v3.4
		c0,0.7,0.6,1.4,1.4,1.4H285z M283,97.9h4v-4h2v4h4v2h-4v4h-2v-4h-4V97.9z"/>
</g>
<g>
	<g>
		<polygon fill="#EE1E3F" points="47.1,47.8 44.6,47.8 44.3,46.6 43.1,46.6 43.7,48.9 48,48.9 48.6,46.6 47.4,46.6 		"/>
		<polygon fill="#EE1E3F" points="57.6,47.8 55,47.8 54.7,46.6 53.5,46.6 54.1,48.9 58.5,48.9 59,46.6 57.8,46.6 		"/>
		<path fill="#EE1E3F" d="M43.5,42h15.1v-8.1H43.5V42z M44.7,37.9h1.4l1.4,2.2l1.8-2.4l0.9,0.9h4.9v-1.2h-4.4l-1.5-1.5l-1.6,2.2
			l-0.9-1.3h-2V35h12.7v2.3h-1.2v1.2h1.2v2.3H44.7V37.9z"/>
		<path fill="#EE1E3F" d="M59.1,31.5h-16h0c-1,0-1.8,0.8-1.8,1.8v0.5v4.1v1.2v7.5h1.9l0,0h1.2l0,0h3.2l0,0h1.2l0,0h4.9l0,0h1.2l0,0
			h3.2l0,0H59l0,0h1.9V33.3C60.9,32.3,60.1,31.5,59.1,31.5z M59.7,45.4H42.4V33.3c0-0.3,0.3-0.6,0.6-0.6h16.2c0.3,0,0.6,0.3,0.6,0.6
			V45.4z"/>
		<rect x="50.5" y="43.1" fill="#EE1E3F" width="1.2" height="1.2"/>
		<rect x="52.8" y="43.1" fill="#EE1E3F" width="1.2" height="1.2"/>
		<rect x="48.2" y="43.1" fill="#EE1E3F" width="1.2" height="1.2"/>
	</g>
	<g>
		<polygon fill="#EE1E3F" points="22.1,17.2 21,17.2 21,18.9 19.3,18.9 19.3,20 21,20 21,21.7 22.1,21.7 22.1,20 23.8,20 23.8,18.9 
			22.1,18.9 		"/>
		<path fill="#EE1E3F" d="M30,37.6h-4.5v-2.1C28.3,34,30,31.1,30,28v-4c0.3,0,0.6-0.3,0.6-0.6V20c0-2.8-2.3-5.1-5.1-5.1h-7.9
			c-2.8,0-5.1,2.3-5.1,5.1v3.4c0,0.3,0.3,0.6,0.6,0.6v4c0,3.1,1.8,6,4.5,7.5v2.1H13c-4.7,0-8.5,3.8-8.5,8.5v2.3
			c0,0.3,0.3,0.6,0.6,0.6H38c0.3,0,0.6-0.3,0.6-0.6v-2.3C38.5,41.4,34.7,37.6,30,37.6z M18.7,38.7h5.7v0.6c0,0.9-0.8,1.7-1.7,1.7
			h-2.3c-0.9,0-1.7-0.8-1.7-1.7V38.7z M13.6,20c0-2.2,1.8-4,4-4h7.9c2.2,0,4,1.8,4,4v2.8H13.6V20z M14.2,28v-4h14.7v4
			c0,4.1-3.3,7.4-7.4,7.4c-0.5,0-1.1-0.1-1.6-0.2c-0.5-0.1-1-0.3-1.5-0.5C15.8,33.4,14.2,30.8,14.2,28z M18.7,36
			C18.7,36,18.7,36,18.7,36c0.1,0,0.1,0,0.2,0.1c0.2,0.1,0.4,0.1,0.7,0.2c0.1,0,0.2,0,0.3,0.1c0.2,0,0.4,0.1,0.5,0.1
			c0.1,0,0.2,0,0.3,0c0.2,0,0.5,0,0.7,0c0,0,0.1,0,0.1,0s0.1,0,0.1,0c0.2,0,0.5,0,0.7,0c0.1,0,0.2,0,0.3,0c0.2,0,0.4-0.1,0.5-0.1
			c0.1,0,0.2,0,0.3-0.1c0.2-0.1,0.4-0.1,0.7-0.2c0,0,0.1,0,0.1,0c0,0,0,0,0,0v1.6h-5.7V36z M13.6,44.4c0,0.3-0.3,0.6-0.6,0.6
			c-0.3,0-0.6-0.3-0.6-0.6s0.3-0.6,0.6-0.6C13.3,43.8,13.6,44.1,13.6,44.4z M37.4,47.8H5.7v-1.7c0-3.8,3-7,6.8-7.3v4
			c-0.9,0.3-1.3,1.3-1,2.2s1.3,1.3,2.2,1c0.9-0.3,1.3-1.3,1-2.2c-0.2-0.5-0.6-0.9-1-1v-4.1h4v0.6c0,1.6,1.3,2.8,2.8,2.8h2.3
			c1.6,0,2.8-1.3,2.8-2.8v-0.6h4v2.9c-1.6,0.3-2.8,1.7-2.8,3.3v0.6c0,0.3,0.3,0.6,0.6,0.6h1.1v-1.1h-0.6c0-1.3,1-2.3,2.3-2.3
			c1.3,0,2.3,1,2.3,2.3h-0.6v1.1h1.1c0.3,0,0.6-0.3,0.6-0.6v-0.6c0-1.7-1.2-3.1-2.8-3.3v-2.9c3.8,0.3,6.8,3.5,6.8,7.3V47.8z"/>
	</g>
</g>
</svg>
