<?xml version="1.0" encoding="utf-8"?>
<!-- Generator: Adobe Illustrator 17.0.0, SVG Export Plug-In . SVG Version: 6.00 Build 0)  -->
<!DOCTYPE svg PUBLIC "-//W3C//DTD SVG 1.1//EN" "http://www.w3.org/Graphics/SVG/1.1/DTD/svg11.dtd" [
	<!ENTITY ns_flows "http://ns.adobe.com/Flows/1.0/">
	<!ENTITY ns_extend "http://ns.adobe.com/Extensibility/1.0/">
	<!ENTITY ns_ai "http://ns.adobe.com/AdobeIllustrator/10.0/">
	<!ENTITY ns_graphs "http://ns.adobe.com/Graphs/1.0/">
]>
<svg version="1.1" id="Layer_1" xmlns:x="&ns_extend;" xmlns:i="&ns_ai;" xmlns:graph="&ns_graphs;"
	 xmlns="http://www.w3.org/2000/svg" xmlns:xlink="http://www.w3.org/1999/xlink" xmlns:a="http://ns.adobe.com/AdobeSVGViewerExtensions/3.0/"
	 x="0px" y="0px" width="66.4px" height="65.8px" viewBox="0 0 66.4 65.8" enable-background="new 0 0 66.4 65.8"
	 xml:space="preserve">
<g>
	<rect x="229.3" y="127.9" fill="none" width="63.4" height="1.3"/>
	<path fill="none" d="M243.4,111.4H234c-0.4,0-4.1,0.1-4.6,4H248C247.5,111.6,243.9,111.4,243.4,111.4z"/>
	<path fill="none" d="M286.1,117.6h-56.8v8h63.4v-1.4C292.7,120.6,289.8,117.6,286.1,117.6z"/>
	<path fill="#EE1E3F" d="M295,130.3v-6c0-4.9-4-8.9-8.9-8.9h-35.8c-0.1-1.7-0.8-3.1-1.9-4.2c-2-2-4.9-2-5-2H234
		c-0.1,0-2.7,0.1-4.7,1.7v-6.8c0-0.6-0.5-1.2-1.2-1.2c-0.6,0-1.2,0.5-1.2,1.2v12.4v13.8v1.1h2.3h63.4h2.3V130.3z M234,111.4h9.4
		c0.4,0,4.1,0.1,4.6,4h-18.6C229.9,111.6,233.6,111.4,234,111.4z M292.7,129.2h-63.4v-1.3h63.4V129.2z M229.3,125.6v-8h56.8
		c3.7,0,6.6,3,6.6,6.6v1.4H229.3z"/>
	<path fill="#EE1E3F" d="M285,102v2.6c0,0.7,0.6,1.4,1.4,1.4h3.4c0.7,0,1.4-0.6,1.4-1.4V102h2.6c0.7,0,1.4-0.6,1.4-1.4v-3.4
		c0-0.7-0.6-1.4-1.4-1.4H291v-2.6c0-0.7-0.6-1.4-1.4-1.4h-3.4c-0.7,0-1.4,0.6-1.4,1.4v2.6h-2.6c-0.7,0-1.4,0.6-1.4,1.4v3.4
		c0,0.7,0.6,1.4,1.4,1.4H285z M283,97.9h4v-4h2v4h4v2h-4v4h-2v-4h-4V97.9z"/>
</g>
<g>
	<path fill="#EE1E3F" d="M35.1,19c-0.6-0.1-1.1,0.3-1.2,0.9c-0.1,0.6,0.3,1.1,0.9,1.2c2.4,0.4,4.5,1.5,6.3,3.2
		c1.7,1.7,2.8,3.9,3.2,6.3c0.1,0.5,0.5,0.9,1,0.9c0.1,0,0.1,0,0.2,0c0.6-0.1,1-0.6,0.9-1.2c-0.5-2.8-1.8-5.4-3.8-7.4
		C40.5,20.8,37.9,19.5,35.1,19L35.1,19z M35.1,19"/>
	<g>
		<path fill="#EE1E3F" d="M41.8,53.3c0.2,0,0.4,0,0.6,0c2,0,3.7-0.7,5-2.2l0,0c0.5-0.6,1-1.1,1.6-1.6c0.4-0.4,0.8-0.8,1.2-1.1
			c1.8-1.8,1.8-4.2,0-6l-4.9-4.9c-0.8-0.9-1.9-1.3-2.9-1.3c-1.1,0-2.1,0.5-2.9,1.3l-2.9,2.9c-0.3-0.1-0.5-0.3-0.8-0.4
			c-0.3-0.2-0.6-0.3-0.9-0.5c-2.7-1.7-5.1-3.9-7.4-6.7c-1.2-1.5-1.9-2.7-2.5-3.9c0.8-0.7,1.5-1.4,2.1-2.1c0.3-0.3,0.5-0.5,0.8-0.8
			c1.8-1.8,1.8-4.1,0-6l-2.4-2.4c-0.3-0.3-0.6-0.6-0.8-0.8c-0.5-0.6-1.1-1.1-1.7-1.6C22,14.2,21,13.8,20,13.8
			c-1.1,0-2.1,0.4-2.9,1.3L14,18.1c-1.1,1.1-1.8,2.5-1.9,4.1c-0.2,2,0.2,4.1,1.1,6.6c1.4,3.9,3.6,7.5,6.8,11.4
			c3.9,4.7,8.6,8.3,14,10.9C36,52,38.8,53.1,41.8,53.3L41.8,53.3z M21.6,38.8c-3.1-3.7-5.1-7.1-6.4-10.7c-0.8-2.3-1.1-4-1-5.7
			c0.1-1.1,0.5-2,1.3-2.7l3-3c0.5-0.4,1-0.7,1.5-0.7c0.5,0,1,0.2,1.4,0.7c0.5,0.5,1.1,1,1.6,1.6c0.3,0.3,0.6,0.6,0.9,0.9l2.4,2.4
			c1,1,1,2,0,3c-0.3,0.3-0.5,0.5-0.8,0.8c-0.8,0.8-1.5,1.5-2.2,2.2l0,0c-0.7,0.7-0.6,1.4-0.4,1.9c0,0,0,0,0,0.1
			c0.6,1.5,1.5,3,2.9,4.7c2.5,3,5,5.4,7.9,7.2c0.4,0.2,0.7,0.4,1.1,0.6c0.3,0.2,0.6,0.3,0.9,0.5c0,0,0.1,0,0.1,0.1
			c0.3,0.1,0.5,0.2,0.8,0.2c0.7,0,1.1-0.4,1.3-0.6l3.1-3.1c0.5-0.5,1-0.7,1.5-0.7c0.6,0,1.1,0.4,1.4,0.7l4.9,4.9
			c1.2,1.2,0.7,2.3,0,3c-0.3,0.4-0.7,0.7-1.1,1.1c-0.6,0.6-1.2,1.1-1.7,1.8c-0.9,1-2,1.5-3.5,1.5c-0.1,0-0.3,0-0.4,0
			c-2.7-0.2-5.2-1.2-7-2.1C29.8,46.7,25.4,43.2,21.6,38.8L21.6,38.8z M21.6,38.8"/>
		<path fill="#EE1E3F" d="M53,31.1c0.1,0,0.1,0,0.2,0c0.6-0.1,1-0.6,0.9-1.2c-0.8-4.6-3-8.9-6.3-12.2c-3.4-3.4-7.6-5.5-12.2-6.3
			c-0.6-0.1-1.1,0.3-1.2,0.9c-0.1,0.6,0.3,1.1,0.9,1.2c4.2,0.7,8,2.7,11.1,5.7c3,3,5,6.9,5.7,11.1C52,30.7,52.5,31.1,53,31.1
			L53,31.1z M53,31.1"/>
	</g>
</g>
</svg>
