<?xml version="1.0" encoding="utf-8"?>
<!-- Generator: Adobe Illustrator 17.0.0, SVG Export Plug-In . SVG Version: 6.00 Build 0)  -->
<!DOCTYPE svg PUBLIC "-//W3C//DTD SVG 1.1//EN" "http://www.w3.org/Graphics/SVG/1.1/DTD/svg11.dtd" [
	<!ENTITY ns_flows "http://ns.adobe.com/Flows/1.0/">
	<!ENTITY ns_extend "http://ns.adobe.com/Extensibility/1.0/">
	<!ENTITY ns_ai "http://ns.adobe.com/AdobeIllustrator/10.0/">
	<!ENTITY ns_graphs "http://ns.adobe.com/Graphs/1.0/">
]>
<svg version="1.1" id="Layer_1" xmlns:x="&ns_extend;" xmlns:i="&ns_ai;" xmlns:graph="&ns_graphs;"
	 xmlns="http://www.w3.org/2000/svg" xmlns:xlink="http://www.w3.org/1999/xlink" xmlns:a="http://ns.adobe.com/AdobeSVGViewerExtensions/3.0/"
	 x="0px" y="0px" width="66.4px" height="65.8px" viewBox="0 0 66.4 65.8" enable-background="new 0 0 66.4 65.8"
	 xml:space="preserve">
<g>
	<rect x="229.3" y="127.9" fill="none" width="63.4" height="1.3"/>
	<path fill="none" d="M243.4,111.4H234c-0.4,0-4.1,0.1-4.6,4H248C247.5,111.6,243.9,111.4,243.4,111.4z"/>
	<path fill="none" d="M286.1,117.6h-56.8v8h63.4v-1.4C292.7,120.6,289.8,117.6,286.1,117.6z"/>
	<path fill="#EE1E3F" d="M295,130.3v-6c0-4.9-4-8.9-8.9-8.9h-35.8c-0.1-1.7-0.8-3.1-1.9-4.2c-2-2-4.9-2-5-2H234
		c-0.1,0-2.7,0.1-4.7,1.7v-6.8c0-0.6-0.5-1.2-1.2-1.2c-0.6,0-1.2,0.5-1.2,1.2v12.4v13.8v1.1h2.3h63.4h2.3V130.3z M234,111.4h9.4
		c0.4,0,4.1,0.1,4.6,4h-18.6C229.9,111.6,233.6,111.4,234,111.4z M292.7,129.2h-63.4v-1.3h63.4V129.2z M229.3,125.6v-8h56.8
		c3.7,0,6.6,3,6.6,6.6v1.4H229.3z"/>
	<path fill="#EE1E3F" d="M285,102v2.6c0,0.7,0.6,1.4,1.4,1.4h3.4c0.7,0,1.4-0.6,1.4-1.4V102h2.6c0.7,0,1.4-0.6,1.4-1.4v-3.4
		c0-0.7-0.6-1.4-1.4-1.4H291v-2.6c0-0.7-0.6-1.4-1.4-1.4h-3.4c-0.7,0-1.4,0.6-1.4,1.4v2.6h-2.6c-0.7,0-1.4,0.6-1.4,1.4v3.4
		c0,0.7,0.6,1.4,1.4,1.4H285z M283,97.9h4v-4h2v4h4v2h-4v4h-2v-4h-4V97.9z"/>
</g>
<g>
	<rect x="6.8" y="44.8" fill="none" width="52.1" height="1.1"/>
	<path fill="none" d="M18.4,31.3h-7.7c-0.4,0-3.4,0.1-3.8,3.2h15.3C21.8,31.4,18.7,31.3,18.4,31.3z"/>
	<path fill="none" d="M53.5,36.3H6.8v6.6h52.1v-1.1C58.9,38.8,56.5,36.3,53.5,36.3z"/>
	<path fill="#EE1E3F" d="M60.8,46.8v-5c0-4-3.2-7.3-7.3-7.3H24.1c-0.1-1.4-0.6-2.5-1.5-3.4c-1.7-1.7-4-1.7-4.1-1.7h-7.7
		c-0.1,0-2.2,0.1-3.8,1.4v-5.6c0-0.5-0.4-0.9-0.9-0.9c-0.5,0-0.9,0.4-0.9,0.9v10.2v11.3v0.9h1.9h52.1h1.9V46.8z M10.7,31.3h7.7
		c0.4,0,3.4,0.1,3.8,3.2H6.9C7.3,31.4,10.3,31.3,10.7,31.3z M58.9,45.9H6.8v-1.1h52.1V45.9z M6.8,42.9v-6.6h46.7
		c3,0,5.4,2.5,5.4,5.4v1.1H6.8z"/>
	<path fill="#EE1E3F" d="M52.5,23.5v2.2c0,0.6,0.5,1.1,1.1,1.1h2.8c0.6,0,1.1-0.5,1.1-1.1v-2.2h2.2c0.6,0,1.1-0.5,1.1-1.1v-2.8
		c0-0.6-0.5-1.1-1.1-1.1h-2.2v-2.2c0-0.6-0.5-1.1-1.1-1.1h-2.8c-0.6,0-1.1,0.5-1.1,1.1v2.2h-2.2c-0.6,0-1.1,0.5-1.1,1.1v2.8
		c0,0.6,0.5,1.1,1.1,1.1H52.5z M50.9,20.1h3.3v-3.3h1.7v3.3h3.3v1.7h-3.3v3.3h-1.7v-3.3h-3.3V20.1z"/>
</g>
</svg>
