<?xml version="1.0" encoding="utf-8"?>
<!-- Generator: Adobe Illustrator 17.0.0, SVG Export Plug-In . SVG Version: 6.00 Build 0)  -->
<!DOCTYPE svg PUBLIC "-//W3C//DTD SVG 1.1//EN" "http://www.w3.org/Graphics/SVG/1.1/DTD/svg11.dtd" [
	<!ENTITY ns_flows "http://ns.adobe.com/Flows/1.0/">
	<!ENTITY ns_extend "http://ns.adobe.com/Extensibility/1.0/">
	<!ENTITY ns_ai "http://ns.adobe.com/AdobeIllustrator/10.0/">
	<!ENTITY ns_graphs "http://ns.adobe.com/Graphs/1.0/">
]>
<svg version="1.1" id="Layer_1" xmlns:x="&ns_extend;" xmlns:i="&ns_ai;" xmlns:graph="&ns_graphs;"
	 xmlns="http://www.w3.org/2000/svg" xmlns:xlink="http://www.w3.org/1999/xlink" xmlns:a="http://ns.adobe.com/AdobeSVGViewerExtensions/3.0/"
	 x="0px" y="0px" width="29.1px" height="29.4px" viewBox="0 0 29.1 29.4" enable-background="new 0 0 29.1 29.4"
	 xml:space="preserve">
<g>
	<g>
		<g>
			<path fill="#939598" d="M12.9,10.7l0.5,0.5c0.4-0.4,1.1-0.4,1.5,0l0.5-0.5C14.7,10.1,13.6,10.1,12.9,10.7z"/>
			<path fill="#939598" d="M23.9,15.6l-2.8-0.7v-1c0-0.7-0.6-1.3-1.3-1.3c-0.7,0-1.3,0.6-1.3,1.3v0.3l-1.9-0.5l0.1-2
				c0.1-1.7-0.5-3.3-1.6-4.6c-0.2-0.3-0.6-0.4-0.9-0.4l0,0c-0.4,0-0.7,0.2-0.9,0.4c-1.1,1.3-1.7,2.9-1.6,4.6l0.1,1.9l-1.9,0.5V14
				c0-0.7-0.6-1.3-1.3-1.3S7.1,13.2,7.1,14v1l-2.8,0.7c-0.1,0-0.2,0.2-0.2,0.3v2c0,0.2,0.1,0.3,0.3,0.3c0,0,0,0,0,0l7.4-0.6l0.2,3.8
				l-1.8,0.9c-0.1,0.1-0.2,0.2-0.2,0.3V24c0,0.2,0.1,0.3,0.3,0.3H13l0.1,0.4c0,0.1,0.2,0.2,0.3,0.2h1.3c0.1,0,0.3-0.1,0.3-0.2
				l0.1-0.4h2.5c0.2,0,0.3-0.1,0.3-0.3v-1.3c0-0.1-0.1-0.2-0.2-0.3l-1.8-0.9l0.2-3.8l7.4,0.6c0,0,0,0,0,0c0.2,0,0.3-0.1,0.3-0.3v-2
				C24.1,15.8,24,15.7,23.9,15.6z M19.1,14c0-0.4,0.3-0.7,0.7-0.7c0.4,0,0.7,0.3,0.7,0.7v0.8l-1.3-0.3V14z M7.8,14
				c0-0.4,0.3-0.7,0.7-0.7s0.7,0.3,0.7,0.7v0.4l-1.3,0.3V14z M4.8,16.2l0.7-0.2v1.5l-0.7,0.1V16.2z M6.1,17.5v-1.6l5.6-1.5l0.1,2.6
				L6.1,17.5z M10.8,23.6v-0.8l1.5-0.7l0.5,1.5H10.8z M14.6,24.3h-0.9l-0.9-2.7l-0.5-9.8c-0.1-1.5,0.4-3,1.4-4.1
				c0.2-0.2,0.6-0.3,0.8,0c0,0,0,0,0.1,0.1c1,1.1,1.5,2.6,1.4,4.1l-0.5,9.8L14.6,24.3z M17.5,23.6h-2l0.5-1.5l1.5,0.7V23.6z
				 M16.5,14.4l5.6,1.5v1.6L16.4,17L16.5,14.4z M23.5,17.6l-0.7-0.1v-1.5l0.7,0.2V17.6z"/>
			<path fill="#939598" d="M5.8,18.9h0.3c0.1,0,0.2,0.1,0.2,0.2v2c0,0.1-0.1,0.2-0.2,0.2H5.8c-0.1,0-0.2-0.1-0.2-0.2v-2
				C5.6,18.9,5.7,18.9,5.8,18.9z"/>
			<path fill="#939598" d="M7.9,19.9h0.3c0.1,0,0.2,0.1,0.2,0.2v4.8c0,0.1-0.1,0.2-0.2,0.2H7.9c-0.1,0-0.2-0.1-0.2-0.2V20
				C7.7,20,7.8,19.9,7.9,19.9z"/>
			<path fill="#939598" d="M5.8,21.8h0.3c0.1,0,0.2,0.1,0.2,0.2v0.7c0,0.1-0.1,0.2-0.2,0.2H5.8c-0.1,0-0.2-0.1-0.2-0.2V22
				C5.6,21.9,5.7,21.8,5.8,21.8z"/>
			<path fill="#939598" d="M20.1,21.1h0.3c0.1,0,0.2,0.1,0.2,0.2v2c0,0.1-0.1,0.2-0.2,0.2h-0.3c-0.1,0-0.2-0.1-0.2-0.2v-2
				C20,21.1,20,21.1,20.1,21.1z"/>
			<path fill="#939598" d="M22.2,20.3h0.3c0.1,0,0.2,0.1,0.2,0.2V24c0,0.1-0.1,0.2-0.2,0.2h-0.3c-0.1,0-0.2-0.1-0.2-0.2v-3.5
				C22,20.4,22.1,20.3,22.2,20.3z"/>
			<path fill="#939598" d="M20.1,19.2h0.3c0.1,0,0.2,0.1,0.2,0.2V20c0,0.1-0.1,0.2-0.2,0.2h-0.3C20,20.2,20,20.1,20,20v-0.7
				C20,19.3,20,19.2,20.1,19.2z"/>
		</g>
	</g>
	<path fill="#939598" d="M19.9,5.8v0.9c0,0.3,0.2,0.5,0.5,0.5h1.2c0.3,0,0.5-0.2,0.5-0.5V5.8H23c0.3,0,0.5-0.2,0.5-0.5V4.1
		c0-0.3-0.2-0.5-0.5-0.5h-0.9V2.6c0-0.3-0.2-0.5-0.5-0.5h-1.2c-0.3,0-0.5,0.2-0.5,0.5v0.9H19c-0.3,0-0.5,0.2-0.5,0.5v1.2
		c0,0.3,0.2,0.5,0.5,0.5H19.9z M19.2,4.3h1.4V2.9h0.7v1.4h1.4V5h-1.4v1.4h-0.7V5h-1.4V4.3z"/>
</g>
</svg>
