<?xml version="1.0" encoding="utf-8"?>
<!-- Generator: Adobe Illustrator 17.0.0, SVG Export Plug-In . SVG Version: 6.00 Build 0)  -->
<!DOCTYPE svg PUBLIC "-//W3C//DTD SVG 1.1//EN" "http://www.w3.org/Graphics/SVG/1.1/DTD/svg11.dtd" [
	<!ENTITY ns_flows "http://ns.adobe.com/Flows/1.0/">
	<!ENTITY ns_extend "http://ns.adobe.com/Extensibility/1.0/">
	<!ENTITY ns_ai "http://ns.adobe.com/AdobeIllustrator/10.0/">
	<!ENTITY ns_graphs "http://ns.adobe.com/Graphs/1.0/">
]>
<svg version="1.1" id="Layer_1" xmlns:x="&ns_extend;" xmlns:i="&ns_ai;" xmlns:graph="&ns_graphs;"
	 xmlns="http://www.w3.org/2000/svg" xmlns:xlink="http://www.w3.org/1999/xlink" xmlns:a="http://ns.adobe.com/AdobeSVGViewerExtensions/3.0/"
	 x="0px" y="0px" width="29.1px" height="29.4px" viewBox="0 0 29.1 29.4" enable-background="new 0 0 29.1 29.4"
	 xml:space="preserve">
<g>
	<path fill="#939598" d="M19.5,11.2c-0.5-0.7-1.2-1.1-2.1-1.1c-0.8,0-1.4,0.6-1.5,1.6c-0.1,0.4,0,0.7,0,1c0,0.2,0,0.4,0,0.6
		c-0.4-0.2-0.6-0.5-0.6-0.9V8.8c0-0.2-0.1-0.3-0.3-0.3s-0.3,0.1-0.3,0.3v3.6c0,0.4-0.3,0.7-0.6,0.9c0-0.2,0-0.4,0-0.6
		c0-0.3,0.1-0.6,0-1c-0.2-1-0.7-1.6-1.5-1.6c-0.9,0-1.6,0.4-2,1.1c-0.6,0.9-1.3,2.2-1.3,4.7c0,1.3,0.1,2.9,1,3.4
		c0.2,0.1,0.4,0.2,0.8,0.2c1.3,0,2.7-1.2,3.1-2.1c0.1-0.3,0.2-0.6,0.2-1.2c0-0.5-0.1-1-0.2-1.5c0-0.1-0.2-0.2-0.3-0.2
		c-0.1,0-0.2,0.2-0.2,0.3c0.1,0.4,0.2,0.9,0.2,1.4c0,0.4-0.1,0.8-0.2,0.9c-0.4,0.7-1.6,1.8-2.7,1.8c-0.3,0-0.5-0.1-0.6-0.1
		c-0.8-0.4-0.8-2.3-0.8-3c0-2.3,0.6-3.5,1.2-4.4c0.4-0.6,0.9-0.9,1.6-0.9c0.5,0,0.9,0.4,1,1.2c0.1,0.3,0,0.6,0,0.9s-0.1,0.6,0,0.9
		c-0.2,0.1-0.3,0.1-0.5,0.2S13,13.9,13,14.1c0,0.1,0.1,0.2,0.3,0.2c0,0,0.1,0,0.1,0c0.3-0.1,1.3-0.4,1.7-1c0.5,0.7,1.5,1,1.7,1
		c0,0,0.1,0,0.1,0c0.1,0,0.2-0.1,0.3-0.2c0-0.1-0.1-0.3-0.2-0.3s-0.3-0.1-0.5-0.2c0-0.3,0-0.6,0-0.9s-0.1-0.5,0-0.9
		c0.1-0.8,0.5-1.2,1-1.2c0.7,0,1.2,0.3,1.6,0.8c0.6,0.9,1.2,2.1,1.2,4.4c0,0.6,0,2.5-0.8,3c-0.1,0.1-0.3,0.1-0.6,0.1
		c-1.1,0-2.3-1.1-2.7-1.8c-0.1-0.2-0.2-0.5-0.2-0.9c0-0.5,0.1-0.9,0.2-1.4c0-0.1-0.1-0.3-0.2-0.3s-0.3,0.1-0.3,0.2
		c-0.1,0.4-0.2,0.9-0.2,1.5c0,0.5,0.1,0.9,0.2,1.2c0.4,0.9,1.8,2.1,3.1,2.1c0.4,0,0.7-0.1,0.9-0.2c0.9-0.5,1-2.1,1-3.4
		C20.8,13.4,20.1,12.1,19.5,11.2z"/>
	<path fill="#939598" d="M17,14.6c-0.1,0.1-0.1,0.3,0,0.4c0.3,0.4,0.5,0.8,0.5,1.1c0,0.2,0.1,0.3,0.3,0.3s0.3-0.1,0.3-0.3
		c0-0.5-0.2-1-0.6-1.5C17.2,14.5,17.1,14.5,17,14.6z"/>
	<path fill="#939598" d="M17.7,14.4c-0.1,0.1,0,0.3,0.2,0.3l0.8,0.3c0,0,0.1,0,0.1,0c0.1,0,0.2-0.1,0.2-0.2c0.1-0.1,0-0.3-0.2-0.3
		L18,14.3C17.9,14.2,17.7,14.3,17.7,14.4z"/>
	<path fill="#939598" d="M18.3,12.8l-0.8,0.8c-0.1,0.1-0.1,0.3,0,0.4c0.1,0.1,0.1,0.1,0.2,0.1c0.1,0,0.1,0,0.2-0.1l0.8-0.8
		c0.1-0.1,0.1-0.3,0-0.4S18.4,12.7,18.3,12.8z"/>
	<path fill="#939598" d="M12.5,16.3c0.2,0,0.3-0.1,0.3-0.3c0-0.4,0.2-0.8,0.5-1.1c0.1-0.1,0.1-0.3,0-0.4c-0.1-0.1-0.3-0.1-0.4,0
		c-0.4,0.5-0.6,1-0.6,1.5C12.2,16.2,12.3,16.3,12.5,16.3z"/>
	<path fill="#939598" d="M11.2,14.9c0,0.1,0.1,0.2,0.2,0.2c0,0,0.1,0,0.1,0l0.8-0.3c0.1-0.1,0.2-0.2,0.2-0.3
		c-0.1-0.1-0.2-0.2-0.3-0.2l-0.8,0.3C11.2,14.6,11.1,14.7,11.2,14.9z"/>
	<path fill="#939598" d="M12.5,14c0.1,0,0.1,0,0.2-0.1c0.1-0.1,0.1-0.3,0-0.4l-0.8-0.8c-0.1-0.1-0.3-0.1-0.4,0s-0.1,0.3,0,0.4
		l0.8,0.8C12.3,14,12.4,14,12.5,14z"/>
</g>
<g>
	<path fill="#939598" d="M15.1,4c-0.3,0-0.7,0-1,0.1c-0.2,0-0.3,0.2-0.3,0.4c0,0.2,0.2,0.3,0.3,0.3c0,0,0,0,0,0c0.3,0,0.6,0,1,0
		c0.2,0,0.3-0.1,0.3-0.3S15.3,4,15.1,4z"/>
	<path fill="#939598" d="M5.9,15.6c-0.1-0.5-0.1-1-0.1-1.6c0-0.1,0-0.2,0-0.3c0-0.2-0.1-0.3-0.3-0.3c-0.2,0-0.3,0.1-0.3,0.3
		c0,0.1,0,0.2,0,0.4c0,0.6,0,1.1,0.1,1.7c0,0.2,0.2,0.3,0.3,0.3c0,0,0,0,0.1,0C5.8,15.9,5.9,15.8,5.9,15.6z"/>
	<path fill="#939598" d="M6.4,17.4c-0.1-0.2-0.3-0.3-0.4-0.2c-0.2,0.1-0.3,0.3-0.2,0.4c0.2,0.6,0.6,1.2,0.9,1.8
		c0.1,0.1,0.2,0.2,0.3,0.2c0.1,0,0.1,0,0.2-0.1c0.2-0.1,0.2-0.3,0.1-0.5C6.9,18.6,6.6,18,6.4,17.4z"/>
	<path fill="#939598" d="M5.6,12C5.6,12,5.7,12,5.6,12C5.8,12,6,11.9,6,11.8c0.2-0.6,0.4-1.2,0.6-1.8c0.1-0.2,0-0.4-0.2-0.4
		c-0.2-0.1-0.4,0-0.4,0.2c-0.3,0.6-0.5,1.3-0.7,1.9C5.3,11.8,5.4,12,5.6,12z"/>
	<path fill="#939598" d="M9,7c0.1-0.1,0.2-0.3,0-0.5c-0.1-0.1-0.3-0.2-0.5,0C8,6.9,7.5,7.4,7.1,8C7,8.1,7,8.3,7.2,8.4
		c0.1,0,0.1,0.1,0.2,0.1c0.1,0,0.2,0,0.3-0.1C8,7.9,8.5,7.4,9,7z"/>
	<path fill="#939598" d="M13.5,23.2c-0.6-0.1-1.2-0.3-1.8-0.5c-0.2-0.1-0.4,0-0.4,0.2c-0.1,0.2,0,0.4,0.2,0.4c0.6,0.3,1.3,0.4,2,0.6
		c0,0,0,0,0.1,0c0.2,0,0.3-0.1,0.3-0.3C13.8,23.4,13.6,23.2,13.5,23.2z"/>
	<path fill="#939598" d="M17.7,23.3c0-0.2-0.2-0.3-0.4-0.2c-0.6,0.1-1.3,0.2-1.9,0.2c-0.2,0-0.3,0.2-0.3,0.3c0,0.2,0.2,0.3,0.3,0.3
		c0,0,0,0,0,0c0.7,0,1.4-0.1,2-0.3C17.6,23.7,17.7,23.5,17.7,23.3z"/>
	<path fill="#939598" d="M12.5,4.7c-0.1-0.2-0.2-0.3-0.4-0.2c-0.6,0.2-1.3,0.5-1.9,0.8C10,5.4,10,5.6,10.1,5.7
		c0.1,0.1,0.2,0.2,0.3,0.2c0.1,0,0.1,0,0.2,0c0.6-0.3,1.1-0.6,1.7-0.8C12.4,5,12.5,4.9,12.5,4.7z"/>
	<path fill="#939598" d="M9.9,21.8c-0.5-0.4-1-0.8-1.5-1.2c-0.1-0.1-0.3-0.1-0.5,0c-0.1,0.1-0.1,0.3,0,0.5c0.5,0.5,1,0.9,1.6,1.3
		c0.1,0,0.1,0.1,0.2,0.1c0.1,0,0.2-0.1,0.3-0.1C10.1,22.1,10.1,21.9,9.9,21.8z"/>
	<path fill="#939598" d="M20.4,22.1c-0.1-0.2-0.3-0.2-0.5-0.1c-0.3,0.2-0.6,0.3-0.9,0.5c-0.2,0.1-0.2,0.3-0.2,0.4
		c0.1,0.1,0.2,0.2,0.3,0.2c0,0,0.1,0,0.1,0c0.3-0.1,0.6-0.3,0.9-0.5C20.4,22.5,20.5,22.3,20.4,22.1z"/>
	<path fill="#939598" d="M25,18.8c-0.1-0.1-0.3-0.2-0.5-0.1l-3,2.3c-0.1,0.1-0.1,0.2-0.1,0.3v1c0,0.2,0.1,0.3,0.3,0.3
		c0.2,0,0.3-0.1,0.3-0.3v-0.8l2.9-2.2C25.1,19.2,25.1,18.9,25,18.8z"/>
	<path fill="#939598" d="M21.9,21l-1-0.3c-0.2-0.1-0.4,0-0.4,0.2c-0.1,0.2,0,0.4,0.2,0.4l1,0.3c0,0,0.1,0,0.1,0
		c0.1,0,0.3-0.1,0.3-0.2C22.1,21.3,22,21.1,21.9,21z"/>
	<path fill="#939598" d="M24.4,21.5l-0.7-1.7c0-0.1-0.1-0.1-0.1-0.2l-1.7-1c-0.2-0.1-0.4,0-0.5,0.1s0,0.4,0.1,0.5l1.6,0.9l0.6,1.6
		c0.1,0.1,0.2,0.2,0.3,0.2c0,0,0.1,0,0.1,0C24.4,21.9,24.5,21.7,24.4,21.5z"/>
</g>
</svg>
