<?xml version="1.0" encoding="utf-8"?>
<!-- Generator: Adobe Illustrator 17.0.0, SVG Export Plug-In . SVG Version: 6.00 Build 0)  -->
<!DOCTYPE svg PUBLIC "-//W3C//DTD SVG 1.1//EN" "http://www.w3.org/Graphics/SVG/1.1/DTD/svg11.dtd" [
	<!ENTITY ns_flows "http://ns.adobe.com/Flows/1.0/">
	<!ENTITY ns_extend "http://ns.adobe.com/Extensibility/1.0/">
	<!ENTITY ns_ai "http://ns.adobe.com/AdobeIllustrator/10.0/">
	<!ENTITY ns_graphs "http://ns.adobe.com/Graphs/1.0/">
]>
<svg version="1.1" id="Layer_1" xmlns:x="&ns_extend;" xmlns:i="&ns_ai;" xmlns:graph="&ns_graphs;"
	 xmlns="http://www.w3.org/2000/svg" xmlns:xlink="http://www.w3.org/1999/xlink" xmlns:a="http://ns.adobe.com/AdobeSVGViewerExtensions/3.0/"
	 x="0px" y="0px" width="29.1px" height="29.4px" viewBox="0 0 29.1 29.4" enable-background="new 0 0 29.1 29.4"
	 xml:space="preserve">
<g>
	<g>
		<path fill="#939598" d="M23.4,15.8L21.6,11c-0.1-0.4-0.5-0.7-0.9-0.7h-0.9V10c0-0.6-0.5-1-1-1c-0.5,0-1,0.5-1,1v0.3H5.4
			c-0.2,0-0.3,0.1-0.3,0.3V20c0,0.2,0.1,0.3,0.3,0.3h2.4C8,21.4,9,22.1,10.1,22c0.8-0.1,1.5-0.8,1.6-1.6h7.4
			c0.2,1.1,1.2,1.8,2.3,1.6c0.8-0.1,1.5-0.8,1.6-1.6h1.7c0.2,0,0.3-0.1,0.3-0.3v-2.7c0-0.1,0-0.2-0.1-0.3L23.4,15.8z M22.6,15.7
			h-3.3c-0.1,0-0.2-0.1-0.2-0.2v-2.9c0-0.1,0.1-0.2,0.2-0.2h2.1L22.6,15.7z M18.4,10c0-0.2,0.2-0.3,0.4-0.3c0.2,0,0.3,0.2,0.3,0.3
			v0.3h-0.7V10z M9.8,21.3c-0.7,0-1.3-0.6-1.3-1.3s0.6-1.3,1.3-1.3s1.3,0.6,1.3,1.3S10.5,21.3,9.8,21.3z M21.1,21.3
			c-0.7,0-1.3-0.6-1.3-1.3s0.6-1.3,1.3-1.3c0.7,0,1.3,0.6,1.3,1.3S21.8,21.3,21.1,21.3z M23.1,19.7c-0.2-1.1-1.2-1.8-2.3-1.6
			c-0.8,0.1-1.5,0.8-1.6,1.6h-7.4c-0.2-1.1-1.2-1.8-2.3-1.6c-0.8,0.1-1.5,0.8-1.6,1.6h-2V19h1.5c0.1,0,0.2-0.1,0.2-0.2v-0.2
			c0-0.1-0.1-0.2-0.2-0.2H5.8v-2h11.8c0.1,0,0.2-0.1,0.2-0.2v-0.2c0-0.1-0.1-0.2-0.2-0.2H5.8V11h14.9c0.1,0,0.3,0.1,0.3,0.2l0.2,0.5
			h-1.8c-0.5,0-0.9,0.4-0.9,0.9v2.9c0,0.5,0.4,0.9,0.9,0.9H23l1.5,1.2v0.8h-0.8c-0.1,0-0.2,0.1-0.2,0.2v0.2c0,0.1,0.1,0.2,0.2,0.2
			h0.8v0.7H23.1z"/>
		<path fill="#939598" d="M12.4,18.3h6c0.2,0,0.3,0.1,0.3,0.3v0c0,0.2-0.1,0.3-0.3,0.3h-6c-0.2,0-0.3-0.1-0.3-0.3v0
			C12.1,18.5,12.2,18.3,12.4,18.3z"/>
		<path fill="#939598" d="M9.8,19.7L9.8,19.7c0.2,0,0.3,0.1,0.3,0.3l0,0c0,0.2-0.1,0.3-0.3,0.3h0c-0.2,0-0.3-0.1-0.3-0.3l0,0
			C9.4,19.8,9.6,19.7,9.8,19.7z"/>
		<path fill="#939598" d="M21.1,19.7L21.1,19.7c0.2,0,0.3,0.1,0.3,0.3l0,0c0,0.2-0.1,0.3-0.3,0.3h0c-0.2,0-0.3-0.1-0.3-0.3l0,0
			C20.8,19.8,20.9,19.7,21.1,19.7z"/>
		<path fill="#939598" d="M9.7,12.2l-0.1,0.1c-0.2,0.1-0.4,0-0.4-0.2v-0.2c0-0.1-0.1-0.3-0.3-0.3H8.7c-0.1,0-0.3,0.1-0.3,0.3v0.2
			c0,0.2-0.3,0.4-0.4,0.2l-0.1-0.1c-0.1-0.1-0.3-0.1-0.4,0.1l-0.1,0.1c-0.1,0.1-0.1,0.3,0.1,0.4l0.5,0.4c0.1,0.1,0.1,0.3,0,0.4
			l-0.5,0.4c-0.1,0.1-0.1,0.3-0.1,0.4l0.1,0.1c0.1,0.1,0.3,0.1,0.4,0.1L8,14.3c0.2-0.1,0.4,0,0.4,0.2v0.2c0,0.1,0.1,0.3,0.3,0.3h0.1
			c0.1,0,0.3-0.1,0.3-0.3v-0.2c0-0.2,0.3-0.4,0.4-0.2l0.1,0.1c0.1,0.1,0.3,0.1,0.4-0.1l0.1-0.1c0.1-0.1,0.1-0.3-0.1-0.4l-0.5-0.4
			c-0.1-0.1-0.1-0.3,0-0.4l0.5-0.4c0.1-0.1,0.1-0.3,0.1-0.4l-0.1-0.1C10,12.2,9.8,12.1,9.7,12.2z"/>
		<path fill="#939598" d="M18.8,7L18.8,7c0.2,0,0.3,0.1,0.3,0.3V8c0,0.2-0.1,0.3-0.3,0.3l0,0c-0.2,0-0.3-0.1-0.3-0.3V7.3
			C18.4,7.1,18.6,7,18.8,7z"/>
		<path fill="#939598" d="M16.4,7.7L16.4,7.7c0.1-0.1,0.3-0.1,0.5,0l0.5,0.5c0.1,0.1,0.1,0.3,0,0.5l0,0c-0.1,0.1-0.3,0.1-0.5,0
			l-0.5-0.5C16.3,8,16.3,7.8,16.4,7.7z"/>
		<path fill="#939598" d="M20.1,8.2l0.5-0.5c0.1-0.1,0.3-0.1,0.5,0v0c0.1,0.1,0.1,0.3,0,0.5l-0.5,0.5c-0.1,0.1-0.3,0.1-0.5,0l0,0
			C20,8.5,20,8.3,20.1,8.2z"/>
		<path fill="#939598" d="M17.8,12.5c0-0.4-0.4-0.8-0.8-0.8h-1.7c-0.4,0-0.8,0.4-0.8,0.8v1.7c0,0.4,0.4,0.8,0.8,0.8H17
			c0.4,0,0.8-0.4,0.8-0.8V12.5z M17.1,14.2c0,0.1-0.1,0.1-0.1,0.1h0h-1.7c-0.1,0-0.1-0.1-0.1-0.1v0v-1.7c0-0.1,0.1-0.1,0.1-0.1l0,0
			H17c0.1,0,0.1,0.1,0.1,0.1l0,0L17.1,14.2z"/>
		<path fill="#939598" d="M5.4,7.7h4.3c0.2,0,0.3,0.1,0.3,0.3v0c0,0.2-0.1,0.3-0.3,0.3H5.4C5.2,8.3,5.1,8.2,5.1,8v0
			C5.1,7.8,5.2,7.7,5.4,7.7z"/>
		<path fill="#939598" d="M8.4,9h2.3c0.2,0,0.3,0.1,0.3,0.3v0c0,0.2-0.1,0.3-0.3,0.3H8.4c-0.2,0-0.3-0.1-0.3-0.3v0
			C8.1,9.1,8.2,9,8.4,9z"/>
		<path fill="#939598" d="M6.4,9h0.3c0.2,0,0.3,0.1,0.3,0.3v0c0,0.2-0.1,0.3-0.3,0.3H6.4c-0.2,0-0.3-0.1-0.3-0.3v0
			C6.1,9.1,6.2,9,6.4,9z"/>
	</g>
</g>
</svg>
