<?xml version="1.0" encoding="utf-8"?>
<!-- Generator: Adobe Illustrator 17.0.0, SVG Export Plug-In . SVG Version: 6.00 Build 0)  -->
<!DOCTYPE svg PUBLIC "-//W3C//DTD SVG 1.1//EN" "http://www.w3.org/Graphics/SVG/1.1/DTD/svg11.dtd" [
	<!ENTITY ns_flows "http://ns.adobe.com/Flows/1.0/">
	<!ENTITY ns_extend "http://ns.adobe.com/Extensibility/1.0/">
	<!ENTITY ns_ai "http://ns.adobe.com/AdobeIllustrator/10.0/">
	<!ENTITY ns_graphs "http://ns.adobe.com/Graphs/1.0/">
]>
<svg version="1.1" id="Layer_1" xmlns:x="&ns_extend;" xmlns:i="&ns_ai;" xmlns:graph="&ns_graphs;"
	 xmlns="http://www.w3.org/2000/svg" xmlns:xlink="http://www.w3.org/1999/xlink" xmlns:a="http://ns.adobe.com/AdobeSVGViewerExtensions/3.0/"
	 x="0px" y="0px" width="66.4px" height="65.8px" viewBox="0 0 66.4 65.8" enable-background="new 0 0 66.4 65.8"
	 xml:space="preserve">
<g>
	<path fill="#EE1E3F" d="M29.6,18.1l1.3,1.3c1.2-1.2,3.1-1.2,4.3,0l1.3-1.3C34.6,16.2,31.5,16.2,29.6,18.1z"/>
	<path fill="#EE1E3F" d="M60.3,31.9l-7.7-2v-2.7c0-2.1-1.7-3.7-3.7-3.7c-2.1,0-3.7,1.7-3.7,3.7v0.7l-5.3-1.4l0.3-5.5
		c0.3-4.7-1.3-9.3-4.5-12.8C35,7.5,34,7,33,7l0,0c-1,0-2,0.4-2.6,1.2c-3.1,3.5-4.7,8.2-4.4,12.9l0.3,5.4l-5.3,1.4v-0.7
		c0-2.1-1.7-3.7-3.7-3.7s-3.7,1.7-3.7,3.7v2.7l-7.7,2C5.3,32,5,32.3,5,32.8v5.6c0,0.5,0.4,0.9,0.9,0.9c0,0,0.1,0,0.1,0l20.8-1.8
		l0.6,10.6l-5.1,2.5c-0.3,0.2-0.5,0.5-0.5,0.8v3.7c0,0.5,0.4,0.9,0.9,0.9h7.1l0.4,1.2c0.1,0.4,0.5,0.6,0.9,0.6h3.7
		c0.4,0,0.8-0.3,0.9-0.6l0.4-1.2h7.1c0.5,0,0.9-0.4,0.9-0.9v-3.7c0-0.4-0.2-0.7-0.5-0.8l-5.1-2.5l0.6-10.6L60,39.3c0,0,0.1,0,0.1,0
		c0.5,0,0.9-0.4,0.9-0.9v-5.6C61,32.3,60.7,32,60.3,31.9z M47,27.2c0-1,0.8-1.9,1.9-1.9c1,0,1.9,0.8,1.9,1.9v2.2l-3.7-1V27.2z
		 M15.3,27.2c0-1,0.8-1.9,1.9-1.9c1,0,1.9,0.8,1.9,1.9v1.2l-3.7,1V27.2z M6.9,33.5L8.8,33v4.2l-1.9,0.2V33.5z M10.6,37v-4.5
		l15.7-4.1l0.4,7.2L10.6,37z M23.7,54.2V52l4.1-2.1l1.4,4.3H23.7z M34.2,56.1h-2.4l-2.5-7.6L27.8,21c-0.2-4.2,1.2-8.4,4-11.6
		c0.6-0.7,1.7-0.7,2.3-0.1c0.1,0.1,0.1,0.1,0.2,0.2c2.8,3.1,4.2,7.3,3.9,11.4l-1.5,27.5L34.2,56.1z M42.4,54.2h-5.5l1.4-4.3l4.1,2.1
		V54.2z M39.7,28.4l15.7,4.1V37l-16.1-1.4L39.7,28.4z M59.2,37.3l-1.9-0.2V33l1.9,0.5V37.3z"/>
	<path fill="#EE1E3F" d="M9.7,40.8h1c0.2,0,0.5,0.2,0.5,0.5v5.6c0,0.2-0.2,0.5-0.5,0.5h-1c-0.2,0-0.5-0.2-0.5-0.5v-5.6
		C9.2,41,9.4,40.8,9.7,40.8z"/>
	<path fill="#EE1E3F" d="M15.5,43.7h1c0.2,0,0.5,0.2,0.5,0.5v13.3c0,0.2-0.2,0.5-0.5,0.5h-1c-0.2,0-0.5-0.2-0.5-0.5V44.2
		C15,43.9,15.2,43.7,15.5,43.7z"/>
	<path fill="#EE1E3F" d="M9.7,49.2h1c0.2,0,0.5,0.2,0.5,0.5v1.9c0,0.2-0.2,0.5-0.5,0.5h-1c-0.2,0-0.5-0.2-0.5-0.5v-1.9
		C9.2,49.4,9.4,49.2,9.7,49.2z"/>
	<path fill="#EE1E3F" d="M49.8,47h1c0.2,0,0.5,0.2,0.5,0.5v5.6c0,0.2-0.2,0.5-0.5,0.5h-1c-0.2,0-0.5-0.2-0.5-0.5v-5.6
		C49.3,47.2,49.5,47,49.8,47z"/>
	<path fill="#EE1E3F" d="M55.6,44.9h1c0.2,0,0.5,0.2,0.5,0.5v9.8c0,0.2-0.2,0.5-0.5,0.5h-1c-0.2,0-0.5-0.2-0.5-0.5v-9.8
		C55.1,45.1,55.3,44.9,55.6,44.9z"/>
	<path fill="#EE1E3F" d="M49.8,41.8h1c0.2,0,0.5,0.2,0.5,0.5v1.9c0,0.2-0.2,0.5-0.5,0.5h-1c-0.2,0-0.5-0.2-0.5-0.5v-1.9
		C49.3,42,49.5,41.8,49.8,41.8z"/>
</g>
</svg>
